<?xml version="1.0" encoding="utf-8"?>
<!-- Generator: Adobe Illustrator 23.1.0, SVG Export Plug-In . SVG Version: 6.00 Build 0)  -->
<svg version="1.1" xmlns="http://www.w3.org/2000/svg" xmlns:xlink="http://www.w3.org/1999/xlink" x="0px" y="0px"
	 viewBox="0 0 648 477" style="enable-background:new 0 0 648 477;" xml:space="preserve">
<g id="Expanded__x28_thin_x29_">
	<path style="fill:#F85818;" d="M640.5,170.5L640.5,170.5C640.5,170.5,640.5,170.5,640.5,170.5c0,0,0-0.1,0-0.1c0-0.1,0-0.2-0.1-0.3
		c0,0,0,0,0,0c0,0,0,0,0,0c0,0,0,0,0,0c0,0-0.1-0.1-0.1-0.1c0,0-0.1-0.1-0.1-0.1c0,0,0,0,0,0c0,0-0.1-0.1-0.1-0.1
		c0,0-0.1-0.1-0.1-0.1c0,0,0,0,0,0l0,0c0,0,0,0,0,0l0,0c0,0,0,0,0,0l-126-54c0,0,0,0,0,0c0,0,0,0,0,0c-0.1,0-0.2,0-0.3-0.1
		c0,0-0.1,0-0.1,0c0,0,0,0,0,0c0,0,0,0,0,0c-0.1,0-0.1,0-0.2,0c-0.1,0-0.1,0-0.2,0c0,0,0,0,0,0c0,0,0,0,0,0l-63,27c0,0,0,0,0,0l0,0
		c0,0,0,0,0,0L388.5,169V62.5c0,0,0,0,0,0v0c0,0,0,0,0,0c0,0,0-0.1,0-0.1c0-0.1,0-0.2-0.1-0.3c0,0,0,0,0,0c0,0,0,0,0,0
		c0,0,0,0,0-0.1c0,0,0-0.1-0.1-0.1c0-0.1-0.1-0.1-0.1-0.2c0,0,0,0,0,0c0,0-0.1-0.1-0.2-0.1c0,0-0.1,0-0.1-0.1c0,0,0,0-0.1,0l0,0
		c0,0,0,0,0,0l0,0c0,0,0,0,0,0l-126-54c0,0,0,0,0,0c0,0,0,0,0,0c-0.1,0-0.2,0-0.3-0.1c0,0-0.1,0-0.1,0c0,0,0,0,0,0c0,0,0,0,0,0
		c0,0-0.1,0-0.1,0c-0.1,0-0.2,0-0.3,0.1c0,0,0,0,0,0c0,0,0,0,0,0l-63,27c0,0,0,0,0,0l0,0c0,0,0,0,0,0l-63,27c0,0,0,0,0,0l0,0
		c0,0,0,0,0,0l0,0c0,0,0,0-0.1,0c0,0,0,0-0.1,0c-0.1,0-0.1,0.1-0.2,0.1c0,0,0,0,0,0c0,0-0.1,0.1-0.1,0.2c0,0,0,0.1-0.1,0.1
		c0,0,0,0,0,0.1c0,0,0,0,0,0c0,0,0,0,0,0c0,0.1,0,0.2-0.1,0.3c0,0,0,0.1,0,0.1c0,0,0,0,0,0v0c0,0,0,0,0,0v54c0,0,0,0,0,0v0
		c0,0,0,0,0,0v53.3l-62.4,26.7c0,0,0,0,0,0l0,0c0,0,0,0,0,0l-63,27c0,0,0,0,0,0l0,0c0,0,0,0,0,0l0,0c0,0,0,0-0.1,0c0,0,0,0-0.1,0
		c-0.1,0-0.1,0.1-0.2,0.1c0,0,0,0,0,0c0,0-0.1,0.1-0.1,0.2c0,0,0,0.1-0.1,0.1c0,0,0,0,0,0.1c0,0,0,0,0,0c0,0,0,0,0,0
		c0,0.1,0,0.2-0.1,0.3c0,0,0,0.1,0,0.1c0,0,0,0,0,0v0c0,0,0,0,0,0v54c0,0,0,0,0,0v0c0,0,0,0,0,0v54c0,0,0,0,0,0v0c0,0,0,0,0,0
		c0,0,0,0.1,0,0.1c0,0.1,0,0.2,0.1,0.3c0,0,0,0,0,0c0,0,0,0,0,0c0,0.1,0.1,0.2,0.2,0.3c0,0,0,0,0,0c0,0,0,0,0.1,0
		c0.1,0.1,0.1,0.1,0.2,0.1c0,0,0,0,0,0c0,0,0,0,0,0l0,0c0,0,0,0,0,0l126,54c0,0,0,0,0,0c0,0,0,0,0,0c0.1,0,0.2,0.1,0.3,0.1
		c0,0,0,0,0,0c0,0,0,0,0,0c0,0,0,0,0,0s0,0,0,0c0,0,0,0,0,0c0,0,0,0,0,0c0.1,0,0.2,0,0.3-0.1c0,0,0,0,0,0c0,0,0,0,0,0l126-54
		c0,0,0,0,0,0l0,0c0,0,0,0,0,0c0.1-0.1,0.2-0.1,0.3-0.2c0,0,0.1-0.1,0.1-0.1c0-0.1,0.1-0.1,0.1-0.2c0-0.1,0.1-0.2,0.1-0.3
		c0,0,0-0.1,0-0.1v0c0,0,0,0,0,0V225.2l124-53.1v52.5c0,0,0,0,0,0v0c0,0,0,0,0,0v54c0,0,0,0,0,0c0,0.1,0,0.1,0,0.2
		c0,0.1,0,0.2,0,0.2c0,0,0,0,0,0c0,0.1,0.1,0.2,0.2,0.3c0,0,0,0,0.1,0.1c0.1,0.1,0.1,0.1,0.2,0.1c0,0,0.1,0,0.1,0
		c0.1,0,0.2,0.1,0.3,0.1c0,0,0,0,0,0c0,0,0,0,0,0c0,0,0,0,0,0c0,0,0,0,0,0c0.1,0,0.3,0,0.4-0.1c0,0,0,0,0,0l63-27c0,0,0,0,0,0l63-27
		c0,0,0,0,0,0L638.5,172v105.8l-125.4,53.7c-0.5,0.2-0.7,0.8-0.5,1.3c0.2,0.4,0.5,0.6,0.9,0.6c0.1,0,0.3,0,0.4-0.1l126-54
		c0,0,0,0,0,0l0,0c0,0,0,0,0,0c0.1-0.1,0.2-0.1,0.3-0.2c0,0,0.1-0.1,0.1-0.1c0-0.1,0.1-0.1,0.1-0.2c0-0.1,0.1-0.2,0.1-0.3
		c0,0,0-0.1,0-0.1v0c0,0,0,0,0,0V170.5C640.5,170.5,640.5,170.5,640.5,170.5z M512.5,172v51L453,197.5L512.5,172z M451.5,196v-51
		l59.5,25.5L451.5,196z M512.5,169L453,143.5l59.5-25.5V169z M449.5,196L390,170.5l59.5-25.5V196z M448,197.5L388.5,223v-51
		L448,197.5z M449.5,199v51L390,224.5L449.5,199z M388.5,226l59.5,25.5L388.5,277V226z M451.5,199l59.5,25.5L451.5,250V199z
		 M514.5,170.5C514.5,170.5,514.5,170.5,514.5,170.5L514.5,170.5C514.5,170.5,514.5,170.5,514.5,170.5V118L637,170.5L514.5,223
		V170.5z M12,332.5l60.8-26.1c0,0,0,0,0,0l61.6-26.4v105L12,332.5z M199.5,142V91l59.5,25.5L199.5,142z M201,89.5L260.5,64v51
		L201,89.5z M199.5,88V37L259,62.5L199.5,88z M197.5,91v51L138,116.5L197.5,91z M136.5,115V64L196,89.5L136.5,115z M198.9,144.4
		C198.9,144.4,198.9,144.4,198.9,144.4l61.6-26.4v105L138,170.5L198.9,144.4z M262.5,115V62.5c0,0,0,0,0,0v0c0,0,0,0,0,0V10
		L385,62.5L262.5,115z M260.5,61L201,35.5L260.5,10V61z M197.5,88L138,62.5L197.5,37V88z M196,143.5L136.5,169v-51L196,143.5z
		 M73.5,250v-51l59.5,25.5L73.5,250z M134.5,226v51L75,251.5L134.5,226z M10.5,277v-51L70,251.5L10.5,277z M71.5,253v51L12,278.5
		L71.5,253z M70,305.5L10.5,331v-51L70,305.5z M73.5,304v-51l59.5,25.5L73.5,304z M134.5,223L75,197.5l59.5-25.5V223z M71.5,250
		L12,224.5L71.5,199V250z M136.5,277v-52.5c0,0,0,0,0,0v0c0,0,0,0,0,0V172L259,224.5L136.5,277z M262.5,117.2l124-53.1v105.8
		l-124,53.1V117.2z M260.5,331.8l-124,53.1V279.2l124-53.1V331.8z"/>
</g>
<g id="text">
	<g>
		<g>
			<path style="fill:#F85818;" d="M136.9,415.3l31-13.4l0.3,17.6l-1.4,0.6c-0.6-5.7-1.6-9.3-3-11c-1.3-1.7-3.1-2.1-5.4-1.1l-3,1.3
				l-1.7,48.9l6.5-2.8l-0.1,2l-19.5,8.4l0.1-2l6.5-2.8l1.7-48.9l-3,1.3c-2.3,1-4.2,2.9-5.6,5.9c-1.5,2.9-2.8,7.6-3.8,14l-1.4,0.6
				L136.9,415.3z"/>
			<path style="fill:#F85818;" d="M188.8,428.8l-11.6,5l-4.2,16.1l6.7-2.9l-0.1,2l-13.2,5.7l0.1-2l5-2.2l15.1-57.8l0.8-0.4
				l10.9,46.6l4.9-2.1l-0.1,2l-17.3,7.5l0.1-2l5.9-2.5L188.8,428.8z M177.9,431.5l10.6-4.6l-4.4-19l-0.1,0L177.9,431.5z"/>
			<path style="fill:#F85818;" d="M240.7,372.5l-1.8,52.1l-1.1,0.5l-22.2-42l-0.1,0l-1.7,49.1l6.2-2.7l-0.1,2l-12.9,5.6l0.1-2
				l5.4-2.3l1.7-48.9l-5.8,2.5l0.1-2l13.9-6l15.7,29.7l0.1,0l1.2-35.1l-6,2.6l0.1-2l12.9-5.6l-0.1,2L240.7,372.5z"/>
			<path style="fill:#F85818;" d="M250.8,366.2l31-13.4l0.3,17.6l-1.4,0.6c-0.6-5.7-1.6-9.3-3-11c-1.3-1.7-3.1-2.1-5.4-1.1l-3,1.3
				l-1.7,48.9l6.5-2.8l-0.1,2l-19.5,8.4l0.1-2l6.5-2.8l1.7-48.9l-3,1.3c-2.3,1-4.2,2.9-5.6,5.9c-1.5,2.9-2.8,7.6-3.8,14l-1.4,0.6
				L250.8,366.2z"/>
			<path style="fill:#F85818;" d="M299.1,347.3l-1.7,48.9l8.2-3.5c1.6-0.7,2.8-1.4,3.7-2.1c0.9-0.7,1.8-1.9,2.8-3.6
				c0.9-1.7,1.7-3.5,2.2-5.6c0.5-2,1.1-4.8,1.8-8.2l1.3-0.6l-1.6,17.7l-30.6,13.2l0.1-2l5.7-2.5l1.7-48.9l-5.7,2.5l0.1-2l18.2-7.9
				l-0.1,2L299.1,347.3z"/>
			<path style="fill:#F85818;" d="M342.2,362.6l-11.6,5l-4.2,16.1l6.7-2.9l-0.1,2l-13.2,5.7l0.1-2l5-2.2l15.1-57.8l0.8-0.4
				l10.9,46.6l4.9-2.1l-0.1,2l-17.3,7.5l0.1-2l5.9-2.5L342.2,362.6z M331.2,365.3l10.6-4.6l-4.4-19l-0.1,0L331.2,365.3z"/>
			<path style="fill:#F85818;" d="M366.1,366.5l1.7-48.9l-5.6,2.4l0.1-2L381,310c2.1-0.9,3.8-1.5,5.2-1.8c1.4-0.3,2.7-0.1,4,0.6
				s2.1,1.9,2.6,3.5c0.5,1.6,0.7,3.2,0.7,4.9c-0.2,6.3-3.7,11.8-10.4,16.6l0,0.2c7.4-1.5,11,1.4,10.8,8.7c-0.1,1.8-0.5,3.8-1.2,6.1
				c-0.7,2.3-1.9,4.5-3.4,6.5c-1.5,2.1-3,3.6-4.6,4.6c-1.5,1-3.5,2-5.8,3l-18.6,8l0.1-2L366.1,366.5z M379.8,312.5l-5.6,2.4
				l-0.8,22.2l5-2.2c3.4-1.5,5.6-3.4,6.6-5.7c1-2.3,1.6-5.6,1.7-9.7c0.1-3.2-0.1-5.5-0.7-6.7c-0.6-1.2-1.3-1.8-2.3-1.7
				C382.9,311.3,381.5,311.7,379.8,312.5z M378.3,337l-4.9,2.1l-0.8,24.6l5.1-2.2c1.9-0.8,3.4-1.7,4.6-2.6c1.1-0.9,2.1-2.4,3-4.6
				c0.9-2.2,1.4-5.2,1.5-9.1c0.1-4.2-0.4-7-1.5-8.4C384.1,335.4,381.8,335.5,378.3,337z"/>
			<path style="fill:#F85818;" d="M398.7,350.4c0-1.3,0.4-2.6,1.1-3.9c0.7-1.3,1.5-2.1,2.4-2.5c1-0.4,1.8-0.3,2.4,0.4
				c0.6,0.7,0.9,1.7,0.9,3.1c0,1.4-0.4,2.7-1.1,4c-0.7,1.3-1.5,2.1-2.5,2.5c-0.9,0.4-1.7,0.2-2.3-0.5
				C399,352.8,398.7,351.8,398.7,350.4z"/>
			<path style="fill:#F85818;" d="M433.4,323.2l-11.6,5l-4.2,16.1l6.7-2.9l-0.1,2l-13.2,5.7l0.1-2l5-2.2l15.1-57.8l0.8-0.4
				l10.9,46.6l4.9-2.1l-0.1,2l-17.3,7.5l0.1-2l5.9-2.5L433.4,323.2z M422.4,326l10.6-4.6l-4.4-19l-0.1,0L422.4,326z"/>
			<path style="fill:#F85818;" d="M472.7,306.2l-11.6,5l-4.2,16.1l6.7-2.9l-0.1,2l-13.2,5.7l0.1-2l5-2.2l15.1-57.8l0.8-0.4
				l10.9,46.6l4.9-2.1l-0.1,2l-17.3,7.5l0.1-2l5.9-2.5L472.7,306.2z M461.8,309l10.6-4.6l-4.4-19l-0.1,0L461.8,309z"/>
			<path style="fill:#F85818;" d="M518.6,252.5l-5.9,2.6l0.1-2l13-5.6l-0.1,2l-5.7,2.5l-1.1,32c-0.2,4.6-0.5,8.1-1.1,10.6
				c-0.6,2.4-1.5,4.6-2.8,6.7c-1.3,2-2.9,3.8-4.7,5.2c-1.8,1.4-3.6,2.6-5.5,3.4c-4,1.7-6.9,2.1-8.6,1.1s-2.8-2.8-3.2-5.2
				c-0.3-2.5-0.4-5.9-0.3-10.4l1.1-32l-5.3,2.3l0.1-2L506,256l-0.1,2l-5.7,2.5l-1.1,31.1c-0.1,4.3-0.1,7.6,0.1,9.9
				c0.2,2.3,0.9,4,2,5.2c1.1,1.1,3,1.1,5.6,0c2.1-0.9,4-2.3,5.7-4.3c1.7-2,2.9-4.1,3.7-6.5c0.7-2.4,1.2-6.4,1.4-12.2L518.6,252.5z"
				/>
			<path style="fill:#F85818;" d="M525,295.9c0-1.3,0.4-2.6,1.1-3.9c0.7-1.3,1.5-2.1,2.4-2.5c1-0.4,1.8-0.3,2.4,0.4
				c0.6,0.7,0.9,1.7,0.9,3.1c0,1.4-0.4,2.7-1.1,4c-0.7,1.3-1.5,2.1-2.5,2.5c-0.9,0.4-1.7,0.2-2.3-0.5
				C525.3,298.3,525,297.3,525,295.9z"/>
			<path style="fill:#F85818;" d="M544.1,289.7l1.7-48.9l-5.7,2.4l0.1-2l17.2-7.4c3.8-1.6,7-2.3,9.7-1.9c2.7,0.4,4.8,2.5,6.5,6.3
				c1.7,3.8,2.4,8.3,2.2,13.7c-0.2,5.7-1.4,11.1-3.5,16.4c-2.1,5.3-4.5,9.3-7.2,12c-2.7,2.7-5.8,4.8-9.6,6.4l-17.1,7.4l0.1-2
				L544.1,289.7z M552.2,238l-1.7,48.9l4.7-2c2.5-1.1,4.5-2.3,6.1-3.6c1.6-1.3,2.9-3.3,4-6c1.1-2.6,1.9-5.7,2.4-9.3
				c0.5-3.5,0.8-8.1,1-13.5c0.2-6.6-0.2-11.2-1.2-14c-1-2.7-2.4-4.1-4-4.2c-1.6-0.1-3.8,0.5-6.5,1.6L552.2,238z"/>
			<path style="fill:#F85818;" d="M587.9,270.8l1.7-48.9l-5.7,2.5l0.1-2l17.9-7.7l-0.1,2l-5.7,2.5l-1.7,48.9l5.7-2.5l-0.1,2
				l-17.9,7.7l0.1-2L587.9,270.8z M605.7,213l13.7-5.9l-0.1,2l-5.6,2.4l-12.7,23.2l16.6,23.3l3.6-1.5l-0.1,2l-17.9,7.7l0.1-2
				l6.3-2.7l-13.8-19.8l15.9-29.3l-6.2,2.7L605.7,213z"/>
		</g>
	</g>
</g>
</svg>
