<?xml version="1.0" encoding="UTF-8" standalone="no"?>
<!-- Generator: Adobe Illustrator 23.1.0, SVG Export Plug-In . SVG Version: 6.00 Build 0)  -->

<svg
   xmlns:dc="http://purl.org/dc/elements/1.1/"
   xmlns:cc="http://creativecommons.org/ns#"
   xmlns:rdf="http://www.w3.org/1999/02/22-rdf-syntax-ns#"
   xmlns:svg="http://www.w3.org/2000/svg"
   xmlns="http://www.w3.org/2000/svg"
   xmlns:sodipodi="http://sodipodi.sourceforge.net/DTD/sodipodi-0.dtd"
   xmlns:inkscape="http://www.inkscape.org/namespaces/inkscape"
   version="1.1"
   x="0px"
   y="0px"
   viewBox="0 0 648 477"
   style="enable-background:new 0 0 648 477;"
   xml:space="preserve"
   id="svg36"
   sodipodi:docname="logo-tantlab.svg"
   inkscape:version="0.92.3 (2405546, 2018-03-11)"><metadata
   id="metadata42"><rdf:RDF><cc:Work
       rdf:about=""><dc:format>image/svg+xml</dc:format><dc:type
         rdf:resource="http://purl.org/dc/dcmitype/StillImage" /></cc:Work></rdf:RDF></metadata><defs
   id="defs40" /><sodipodi:namedview
   pagecolor="#ffffff"
   bordercolor="#666666"
   borderopacity="1"
   objecttolerance="10"
   gridtolerance="10"
   guidetolerance="10"
   inkscape:pageopacity="0"
   inkscape:pageshadow="2"
   inkscape:window-width="2560"
   inkscape:window-height="1398"
   id="namedview38"
   showgrid="false"
   inkscape:zoom="0.98951782"
   inkscape:cx="136.13465"
   inkscape:cy="255.71406"
   inkscape:window-x="3840"
   inkscape:window-y="20"
   inkscape:window-maximized="0"
   inkscape:current-layer="svg36" />

<g
   id="g867"><g
     id="Expanded__x28_bold_x29_">
	<path
   id="path2"
   d="M641.5,170.5L641.5,170.5C641.5,170.5,641.5,170.5,641.5,170.5c0-0.1,0-0.1,0-0.2c0-0.1,0-0.1,0-0.2   c0-0.1,0-0.1-0.1-0.2c0-0.1,0-0.1-0.1-0.2c0,0,0,0,0,0c0,0,0,0,0,0c0,0,0,0,0,0c0-0.1-0.1-0.1-0.1-0.1c0-0.1-0.1-0.1-0.1-0.2   c0,0,0,0,0,0c0,0-0.1-0.1-0.1-0.1c0,0-0.1-0.1-0.1-0.1c0,0,0,0,0,0c0,0-0.1-0.1-0.1-0.1c0,0-0.1-0.1-0.1-0.1c0,0,0,0,0,0   c-0.1,0-0.1-0.1-0.2-0.1c0,0,0,0-0.1,0c0,0,0,0-0.1,0l0,0c0,0,0,0,0,0l-126-54c0,0,0,0,0,0c0,0,0,0,0,0c-0.1,0-0.1,0-0.2-0.1   c0,0-0.1,0-0.1,0c0,0,0,0-0.1,0c-0.1,0-0.1,0-0.2,0c-0.1,0-0.1,0-0.2,0c0,0-0.1,0-0.1,0c-0.1,0-0.2,0-0.3,0c0,0,0,0,0,0   c0,0-0.1,0-0.1,0c-0.1,0-0.2,0-0.2,0.1c0,0,0,0,0,0c0,0,0,0,0,0l-63,27c0,0,0,0,0,0l-60.2,25.8v-105c0,0,0,0,0,0v0c0,0,0,0,0,0   c0-0.1,0-0.1,0-0.2c0-0.1,0-0.1,0-0.2c0,0,0,0,0,0c0-0.1,0-0.1,0-0.2c0-0.1,0-0.1-0.1-0.2c0,0,0,0,0,0c0,0,0,0,0,0c0,0,0,0,0-0.1   c0,0,0,0,0-0.1c0-0.1-0.1-0.1-0.1-0.2c0,0,0,0,0,0c0,0-0.1-0.1-0.1-0.1c0,0-0.1-0.1-0.1-0.1c0,0,0,0,0,0c0,0-0.1-0.1-0.2-0.1   c0,0-0.1-0.1-0.1-0.1c0,0,0,0,0,0c-0.1,0-0.1-0.1-0.2-0.1c0,0,0,0-0.1,0c0,0,0,0-0.1,0l0,0c0,0,0,0,0,0l0,0c0,0,0,0,0,0l-126-54   c0,0,0,0,0,0c0,0,0,0,0,0c-0.1,0-0.1,0-0.2-0.1c-0.1,0-0.1,0-0.1,0c-0.1,0-0.2,0-0.3,0c0,0-0.1,0-0.1,0c-0.1,0-0.2,0-0.3,0   c0,0-0.1,0-0.1,0c0,0,0,0-0.1,0c-0.1,0-0.1,0-0.2,0c-0.1,0-0.1,0-0.2,0c0,0,0,0,0,0c0,0,0,0,0,0l-63,27c0,0,0,0,0,0l-63,27   c0,0,0,0,0,0l0,0c0,0,0,0-0.1,0c0,0-0.1,0-0.1,0.1c0,0-0.1,0-0.1,0.1c0,0,0,0,0,0c-0.1,0-0.1,0.1-0.1,0.1c0,0-0.1,0.1-0.1,0.1   c0,0,0,0,0,0c0,0-0.1,0.1-0.1,0.2c0,0-0.1,0.1-0.1,0.1c0,0,0,0,0,0c0,0.1-0.1,0.1-0.1,0.2c0,0,0,0.1-0.1,0.1c0,0,0,0,0,0   c0,0,0,0,0,0c0,0,0,0,0,0c0,0.1,0,0.1-0.1,0.2c0,0.1,0,0.1,0,0.2c0,0,0,0,0,0c0,0.1,0,0.1,0,0.2c0,0.1,0,0.1,0,0.2c0,0,0,0,0,0v0   c0,0,0,0,0,0v54c0,0,0,0,0,0v0c0,0,0,0,0,0v52.7l-61.8,26.5c0,0,0,0,0,0l-63,27c0,0,0,0,0,0l0,0c0,0,0,0-0.1,0c0,0-0.1,0-0.1,0.1   c0,0-0.1,0-0.1,0.1c0,0,0,0,0,0c-0.1,0-0.1,0.1-0.1,0.1c0,0-0.1,0.1-0.1,0.1c0,0,0,0,0,0c0,0-0.1,0.1-0.1,0.2c0,0-0.1,0.1-0.1,0.1   c0,0,0,0,0,0c0,0.1-0.1,0.1-0.1,0.2c0,0,0,0.1-0.1,0.1c0,0,0,0,0,0c0,0,0,0,0,0c0,0,0,0,0,0c0,0.1,0,0.1-0.1,0.2c0,0.1,0,0.1,0,0.2   c0,0,0,0,0,0c0,0.1,0,0.1,0,0.2c0,0.1,0,0.1,0,0.2c0,0,0,0,0,0v0c0,0,0,0,0,0v54c0,0,0,0,0,0v0c0,0,0,0,0,0v54c0,0,0,0,0,0v0   c0,0,0,0,0,0c0,0.1,0,0.1,0,0.2c0,0.1,0,0.1,0,0.2c0,0,0,0,0,0c0,0.1,0,0.1,0.1,0.2c0,0.1,0,0.1,0.1,0.2c0,0,0,0,0,0c0,0,0,0,0,0   c0,0,0,0,0,0c0,0,0,0.1,0.1,0.1c0,0.1,0.1,0.1,0.1,0.2c0,0,0.1,0.1,0.1,0.1c0,0,0,0.1,0.1,0.1c0,0,0,0.1,0.1,0.1   c0,0,0.1,0.1,0.2,0.1c0,0,0.1,0.1,0.1,0.1c0,0,0,0,0,0c0,0,0,0,0.1,0c0.1,0,0.2,0.1,0.3,0.1c0,0,0,0,0,0l0,0c0,0,0,0,0,0l126,54   c0,0,0,0,0,0c0,0,0.1,0,0.2,0c0,0,0.1,0,0.1,0c0,0,0.1,0,0.1,0c0.1,0,0.3,0,0.4,0c0,0,0,0,0,0s0,0,0,0c0.1,0,0.3,0,0.4,0   c0,0,0.1,0,0.1,0c0,0,0.1,0,0.1,0c0.1,0,0.1,0,0.2,0c0,0,0,0,0,0l126-54c0,0,0,0,0,0l0,0c0,0,0,0,0,0c0.1-0.1,0.2-0.1,0.3-0.2   c0.1,0,0.1-0.1,0.1-0.1c0.1,0,0.1-0.1,0.2-0.1c0,0,0.1-0.1,0.1-0.2c0,0,0.1-0.1,0.1-0.1c0-0.1,0.1-0.1,0.1-0.2   c0-0.1,0.1-0.1,0.1-0.2c0-0.1,0-0.1,0.1-0.2c0-0.1,0-0.1,0.1-0.2c0-0.1,0-0.2,0-0.3c0,0,0,0,0-0.1v0c0,0,0,0,0,0V225.8l122-52.3v51   c0,0,0,0,0,0v0c0,0,0,0,0,0v54c0,0,0,0,0,0c0,0.1,0,0.3,0,0.4c0,0.1,0.1,0.3,0.1,0.4c0,0,0,0,0,0c0,0,0,0,0,0   c0.1,0.2,0.2,0.3,0.3,0.4c0,0,0.1,0.1,0.1,0.1c0.1,0.1,0.2,0.2,0.4,0.3c0,0,0,0,0.1,0c0.1,0.1,0.3,0.1,0.4,0.2c0,0,0.1,0,0.1,0   c0.2,0,0.3,0.1,0.5,0.1c0,0,0,0,0,0c0.1,0,0.3,0,0.4,0c0.1,0,0.3-0.1,0.4-0.1c0,0,0,0,0,0l63-27c0,0,0,0,0,0l63-27c0,0,0,0,0,0   l123.2-52.8v103.6l-124.8,53.5c-1,0.4-1.5,1.6-1,2.6c0.3,0.8,1.1,1.2,1.8,1.2c0.3,0,0.5-0.1,0.8-0.2l126-54c0,0,0,0,0,0l0,0   c0,0,0,0,0,0c0.1,0,0.2-0.1,0.3-0.2c0.1,0,0.1-0.1,0.1-0.1c0.1,0,0.1-0.1,0.2-0.1c0,0,0.1-0.1,0.1-0.2c0,0,0.1-0.1,0.1-0.1   c0-0.1,0.1-0.1,0.1-0.2c0-0.1,0.1-0.1,0.1-0.2c0-0.1,0-0.1,0.1-0.2c0-0.1,0-0.1,0.1-0.2c0-0.1,0-0.2,0-0.3c0,0,0-0.1,0-0.1v0   c0,0,0,0,0,0V170.5C641.5,170.5,641.5,170.5,641.5,170.5z M511.5,173.5v47.9l-55.9-24L511.5,173.5z M452.5,194.5v-47.9l55.9,24   L452.5,194.5z M511.5,167.5l-55.9-24l55.9-24V167.5z M448.5,194.5l-55.9-24l55.9-24V194.5z M445.4,197.5l-55.9,24v-47.9   L445.4,197.5z M448.5,200.5v47.9l-55.9-24L448.5,200.5z M389.5,227.5l55.9,24l-55.9,24V227.5z M452.5,200.5l55.9,24l-55.9,24V200.5   z M515.5,170.5C515.5,170.5,515.5,170.5,515.5,170.5L515.5,170.5C515.5,170.5,515.5,170.5,515.5,170.5v-51l118.9,51l-118.9,51   V170.5z M14.6,332.5l58.7-25.2c0,0,0,0,0,0l60.2-25.8v101.9L14.6,332.5z M200.5,140.5V92.5l55.9,24L200.5,140.5z M137.5,65.5   l55.9,24l-55.9,24V65.5z M259.5,113.5l-55.9-24l55.9-24V113.5z M200.5,86.5V38.5l55.9,24L200.5,86.5z M263.5,113.5v-51c0,0,0,0,0,0   v0c0,0,0,0,0,0v-51l118.9,51L263.5,113.5z M259.5,59.5l-55.9-24l55.9-24V59.5z M196.5,86.5l-55.9-24l55.9-24V86.5z M196.5,92.5   v47.9l-55.9-24L196.5,92.5z M199.3,145.3C199.3,145.3,199.3,145.3,199.3,145.3l60.2-25.8v101.9l-118.9-51L199.3,145.3z M11.5,227.5   l55.9,24l-55.9,24V227.5z M74.5,248.5v-47.9l55.9,24L74.5,248.5z M133.5,227.5v47.9l-55.9-24L133.5,227.5z M70.5,254.5v47.9   l-55.9-24L70.5,254.5z M11.5,281.5l55.9,24l-55.9,24V281.5z M74.5,302.5v-47.9l55.9,24L74.5,302.5z M133.5,221.5l-55.9-24l55.9-24   V221.5z M70.5,248.5l-55.9-24l55.9-24V248.5z M137.5,275.5v-51c0,0,0,0,0,0v0c0,0,0,0,0,0v-51l118.9,51L137.5,275.5z M263.5,117.8   l122-52.3v103.6l-122,52.3V117.8z M137.5,119.5l55.9,24l-55.9,24V119.5z M259.5,331.2l-122,52.3V279.8l122-52.3V331.2z"
   style="fill:#F85818;" />
</g><g
     id="text__x28_bold_x29_">
	<g
   id="g33">
		<path
   id="path5"
   d="M166.5,420.8c0.2,0.1,0.5,0.1,0.7,0l1.4-0.6c0.3-0.1,0.5-0.4,0.5-0.7l-0.3-17.6    c0-0.2-0.1-0.5-0.3-0.6c-0.2-0.1-0.5-0.2-0.7-0.1l-31,13.4c-0.3,0.1-0.4,0.3-0.4,0.6l-1.6,18.4c0,0.3,0.1,0.5,0.3,0.7    s0.5,0.2,0.7,0.1l1.4-0.6c0.2-0.1,0.4-0.3,0.4-0.6c1-6.3,2.3-10.9,3.7-13.7c1.4-2.7,3.2-4.6,5.3-5.5l1.9-0.8l-1.6,47.2l-6.1,2.6    c-0.3,0.1-0.4,0.4-0.5,0.7l-0.1,2c0,0.3,0.1,0.5,0.3,0.6c0.1,0.1,0.3,0.1,0.4,0.1c0.1,0,0.2,0,0.3-0.1l19.5-8.4    c0.3-0.1,0.4-0.4,0.5-0.7l0.1-2c0-0.3-0.1-0.5-0.3-0.6c-0.2-0.1-0.5-0.2-0.7-0.1l-5.4,2.3l1.6-47.2l2.5-1.1c2-0.8,3.4-0.6,4.5,0.9    c1.2,1.6,2.2,5.2,2.8,10.7C166.2,420.4,166.3,420.6,166.5,420.8z"
   style="fill:#F85818;" />
		<path
   id="path7"
   d="M203,436.1l-4.1,1.8l-10.7-45.7c-0.1-0.2-0.2-0.4-0.4-0.5c-0.2-0.1-0.4-0.1-0.6,0l-0.8,0.4    c-0.2,0.1-0.4,0.3-0.4,0.5l-15,57.5l-4.7,2c-0.3,0.1-0.4,0.4-0.5,0.7l-0.1,2c0,0.3,0.1,0.5,0.3,0.6c0.1,0.1,0.3,0.1,0.4,0.1    c0.1,0,0.2,0,0.3-0.1l13.2-5.7c0.3-0.1,0.4-0.4,0.5-0.7l0.1-2c0-0.3-0.1-0.5-0.3-0.6c-0.2-0.1-0.5-0.2-0.7-0.1l-5.3,2.3l3.7-14.2    l10.4-4.5l2.7,11.5l-5.3,2.3c-0.3,0.1-0.4,0.4-0.5,0.7l-0.1,2c0,0.3,0.1,0.5,0.3,0.6c0.2,0.1,0.5,0.2,0.7,0.1l17.3-7.5    c0.3-0.1,0.4-0.4,0.5-0.7l0.1-2c0-0.3-0.1-0.5-0.3-0.6C203.6,436,203.3,436,203,436.1z M187.5,426.5l-8.6,3.7l5-19.3L187.5,426.5z    "
   style="fill:#F85818;" />
		<path
   id="path9"
   d="M245.9,367.5L233,373c-0.3,0.1-0.4,0.4-0.5,0.7l-0.1,2c0,0.3,0.1,0.5,0.3,0.6    c0.2,0.1,0.5,0.2,0.7,0.1l4.9-2.1l-1.1,31.3l-14.5-27.4c-0.2-0.3-0.6-0.5-1-0.3l-13.9,6c-0.3,0.1-0.4,0.4-0.5,0.7l-0.1,2    c0,0.3,0.1,0.5,0.3,0.6c0.2,0.1,0.5,0.2,0.7,0.1l4.7-2l-1.6,47.2l-5,2.1c-0.3,0.1-0.4,0.4-0.5,0.7l-0.1,2c0,0.3,0.1,0.5,0.3,0.6    c0.1,0.1,0.3,0.1,0.4,0.1c0.1,0,0.2,0,0.3-0.1l12.9-5.6c0.3-0.1,0.4-0.4,0.5-0.7l0.1-2c0-0.3-0.1-0.5-0.3-0.6    c-0.2-0.1-0.5-0.2-0.7-0.1l-5.1,2.2l1.6-45.3l21,39.7c0.2,0.3,0.6,0.5,1,0.3l1.1-0.5c0.3-0.1,0.4-0.4,0.5-0.7l1.8-51.6l5.1-2.2    c0.3-0.1,0.4-0.4,0.5-0.7l0.1-2c0-0.3-0.1-0.5-0.3-0.6C246.4,367.4,246.2,367.4,245.9,367.5z"
   style="fill:#F85818;" />
		<path
   id="path11"
   d="M282.2,352.1c-0.2-0.1-0.5-0.2-0.7-0.1l-31,13.4c-0.3,0.1-0.4,0.3-0.4,0.6l-1.6,18.4    c0,0.3,0.1,0.5,0.3,0.7s0.5,0.2,0.7,0.1l1.4-0.6c0.2-0.1,0.4-0.3,0.4-0.6c1-6.3,2.3-10.9,3.7-13.7c1.4-2.7,3.2-4.6,5.3-5.5    l1.9-0.8l-1.6,47.2l-6.1,2.6c-0.3,0.1-0.4,0.4-0.5,0.7l-0.1,2c0,0.3,0.1,0.5,0.3,0.6c0.1,0.1,0.3,0.1,0.4,0.1c0.1,0,0.2,0,0.3-0.1    l19.5-8.4c0.3-0.1,0.4-0.4,0.5-0.7l0.1-2c0-0.3-0.1-0.5-0.3-0.6c-0.2-0.1-0.5-0.2-0.7-0.1l-5.4,2.3l1.6-47.2l2.5-1.1    c2-0.8,3.4-0.6,4.5,0.9c1.2,1.6,2.2,5.2,2.8,10.7c0,0.2,0.2,0.4,0.4,0.6c0.2,0.1,0.5,0.1,0.7,0l1.4-0.6c0.3-0.1,0.5-0.4,0.5-0.7    l-0.3-17.6C282.6,352.5,282.5,352.3,282.2,352.1z"
   style="fill:#F85818;" />
		<path
   id="path13"
   d="M317.1,371.8l-1.3,0.6c-0.2,0.1-0.4,0.3-0.4,0.5c-0.6,3.4-1.2,6.2-1.8,8.2c-0.5,2-1.2,3.8-2.1,5.4    c-0.9,1.6-1.7,2.7-2.6,3.4c-0.9,0.7-2.1,1.4-3.6,2l-7.1,3.1l1.6-47.2l5.6-2.4c0.3-0.1,0.4-0.4,0.5-0.7l0.1-2    c0-0.3-0.1-0.5-0.3-0.6c-0.2-0.1-0.5-0.2-0.7-0.1l-18.2,7.9c-0.3,0.1-0.4,0.4-0.5,0.7l-0.1,2c0,0.3,0.1,0.5,0.3,0.6    c0.2,0.1,0.5,0.2,0.7,0.1l4.6-2l-1.6,47.2l-5.3,2.3c-0.3,0.1-0.4,0.4-0.5,0.7l-0.1,2c0,0.3,0.1,0.5,0.3,0.6    c0.1,0.1,0.3,0.1,0.4,0.1c0.1,0,0.2,0,0.3-0.1l30.6-13.2c0.3-0.1,0.4-0.3,0.4-0.6l1.6-17.7c0-0.3-0.1-0.5-0.3-0.7    C317.6,371.8,317.3,371.7,317.1,371.8z"
   style="fill:#F85818;" />
		<path
   id="path15"
   d="M356.4,369.9l-4.1,1.8l-10.7-45.7c-0.1-0.2-0.2-0.4-0.4-0.5c-0.2-0.1-0.4-0.1-0.6,0l-0.8,0.4    c-0.2,0.1-0.4,0.3-0.4,0.5l-15,57.5l-4.7,2c-0.3,0.1-0.4,0.4-0.5,0.7l-0.1,2c0,0.3,0.1,0.5,0.3,0.6c0.1,0.1,0.3,0.1,0.4,0.1    c0.1,0,0.2,0,0.3-0.1l13.2-5.7c0.3-0.1,0.4-0.4,0.5-0.7l0.1-2c0-0.3-0.1-0.5-0.3-0.6c-0.2-0.1-0.5-0.2-0.7-0.1l-5.3,2.3l3.7-14.2    l10.4-4.5l2.7,11.5l-5.3,2.3c-0.3,0.1-0.4,0.4-0.5,0.7l-0.1,2c0,0.3,0.1,0.5,0.3,0.6c0.2,0.1,0.5,0.2,0.7,0.1l17.3-7.5    c0.3-0.1,0.4-0.4,0.5-0.7l0.1-2c0-0.3-0.1-0.5-0.3-0.6C356.9,369.8,356.7,369.8,356.4,369.9z M340.9,360.3l-8.6,3.7l5-19.3    L340.9,360.3z"
   style="fill:#F85818;" />
		<path
   id="path17"
   d="M392,334.5c-1.5-1.3-3.7-1.9-6.5-1.7c5.6-4.6,8.5-9.9,8.7-15.7c0.1-1.7-0.2-3.5-0.7-5.1    c-0.6-1.8-1.6-3.1-3-3.9c-1.4-0.8-2.9-1-4.5-0.7c-1.4,0.3-3.2,0.9-5.3,1.8l-18.8,8.1c-0.3,0.1-0.4,0.4-0.5,0.7l-0.1,2    c0,0.3,0.1,0.5,0.3,0.6c0.2,0.1,0.5,0.2,0.7,0.1l4.5-2l-1.6,47.2l-5.2,2.2c-0.3,0.1-0.4,0.4-0.5,0.7l-0.1,2c0,0.3,0.1,0.5,0.3,0.6    c0.1,0.1,0.3,0.1,0.4,0.1c0.1,0,0.2,0,0.3-0.1l18.6-8c2.3-1,4.3-2,5.9-3.1c1.6-1.1,3.2-2.7,4.8-4.8c1.6-2.1,2.7-4.4,3.5-6.7    c0.8-2.3,1.2-4.5,1.2-6.3C394.8,338.9,393.9,336.2,392,334.5z M374.2,335.9l0.7-20.5l5.1-2.2c1.7-0.7,3-1.1,3.8-1.2    c0.2,0,0.9-0.1,1.5,1.3c0.4,0.8,0.7,2.5,0.6,6.3c-0.1,4-0.7,7.2-1.7,9.4c-0.9,2.1-3,3.9-6.2,5.3L374.2,335.9z M373.3,362.6l0.8-23    l4.5-1.9c2.1-0.9,4.9-1.7,6-0.4c0.7,0.9,1.5,2.9,1.3,7.9c-0.1,3.8-0.6,6.8-1.4,8.9c-0.8,2-1.7,3.5-2.8,4.3    c-1.1,0.9-2.6,1.7-4.4,2.5L373.3,362.6z"
   style="fill:#F85818;" />
		<path
   id="path19"
   d="M402,343.4c-1.1,0.5-2,1.4-2.8,2.8c-0.7,1.4-1.2,2.8-1.2,4.2c-0.1,1.6,0.3,2.8,1.1,3.6    c0.5,0.6,1.2,0.9,1.9,0.9c0.4,0,0.8-0.1,1.2-0.3c1.1-0.5,2.1-1.4,2.9-2.9c0.8-1.4,1.2-2.8,1.2-4.3c0.1-1.6-0.3-2.8-1.1-3.6    C404.6,343.3,403.6,342.7,402,343.4z"
   style="fill:#F85818;" />
		<path
   id="path21"
   d="M447.6,330.5l-4.1,1.8l-10.7-45.7c-0.1-0.2-0.2-0.4-0.4-0.5c-0.2-0.1-0.4-0.1-0.6,0l-0.8,0.4    c-0.2,0.1-0.4,0.3-0.4,0.5l-15,57.5l-4.7,2c-0.3,0.1-0.4,0.4-0.5,0.7l-0.1,2c0,0.3,0.1,0.5,0.3,0.6c0.1,0.1,0.3,0.1,0.4,0.1    c0.1,0,0.2,0,0.3-0.1l13.2-5.7c0.3-0.1,0.4-0.4,0.5-0.7l0.1-2c0-0.3-0.1-0.5-0.3-0.6c-0.2-0.1-0.5-0.2-0.7-0.1l-5.3,2.3l3.7-14.2    l10.4-4.5l2.7,11.5l-5.3,2.3c-0.3,0.1-0.4,0.4-0.5,0.7l-0.1,2c0,0.3,0.1,0.5,0.3,0.6c0.2,0.1,0.5,0.2,0.7,0.1l17.3-7.5    c0.3-0.1,0.4-0.4,0.5-0.7l0.1-2c0-0.3-0.1-0.5-0.3-0.6C448.1,330.4,447.8,330.4,447.6,330.5z M432.1,321l-8.6,3.7l5-19.3    L432.1,321z"
   style="fill:#F85818;" />
		<path
   id="path23"
   d="M487,313.5l-4.1,1.8l-10.7-45.7c-0.1-0.2-0.2-0.4-0.4-0.5c-0.2-0.1-0.4-0.1-0.6,0l-0.8,0.4    c-0.2,0.1-0.4,0.3-0.4,0.5l-15,57.5l-4.7,2c-0.3,0.1-0.4,0.4-0.5,0.7l-0.1,2c0,0.3,0.1,0.5,0.3,0.6c0.1,0.1,0.3,0.1,0.4,0.1    c0.1,0,0.2,0,0.3-0.1l13.2-5.7c0.3-0.1,0.4-0.4,0.5-0.7l0.1-2c0-0.3-0.1-0.5-0.3-0.6c-0.2-0.1-0.5-0.2-0.7-0.1l-5.3,2.3l3.7-14.2    l10.4-4.5l2.7,11.5l-5.3,2.3c-0.3,0.1-0.4,0.4-0.5,0.7l-0.1,2c0,0.3,0.1,0.5,0.3,0.6c0.2,0.1,0.5,0.2,0.7,0.1l17.3-7.5    c0.3-0.1,0.4-0.4,0.5-0.7l0.1-2c0-0.3-0.1-0.5-0.3-0.6C487.5,313.4,487.2,313.4,487,313.5z M471.4,304l-8.6,3.7l5-19.3L471.4,304z    "
   style="fill:#F85818;" />
		<path
   id="path25"
   d="M526.4,249.5l0.1-2c0-0.3-0.1-0.5-0.3-0.6c-0.2-0.1-0.5-0.2-0.7-0.1l-13,5.6    c-0.3,0.1-0.4,0.4-0.5,0.7l-0.1,2c0,0.3,0.1,0.5,0.3,0.6c0.2,0.1,0.5,0.2,0.7,0.1l4.9-2.1l-1,29.9c-0.2,5.6-0.7,9.7-1.4,12    c-0.7,2.3-1.9,4.4-3.5,6.3c-1.6,1.9-3.5,3.3-5.4,4.1c-2.3,1-3.9,1-4.8,0.2c-1-1-1.6-2.6-1.8-4.7c-0.2-2.3-0.2-5.6-0.1-9.8l1-30.6    l5.3-2.3c0.3-0.1,0.4-0.4,0.5-0.7l0.1-2c0-0.3-0.1-0.5-0.3-0.6c-0.2-0.1-0.5-0.2-0.7-0.1l-17.4,7.5c-0.3,0.1-0.4,0.4-0.5,0.7    l-0.1,2c0,0.3,0.1,0.5,0.3,0.6c0.2,0.1,0.5,0.2,0.7,0.1l4.2-1.8l-1.1,30.8c-0.2,4.5-0.1,8,0.3,10.5c0.4,2.7,1.6,4.7,3.5,5.8    c0.8,0.4,1.7,0.7,2.8,0.7c1.7,0,3.9-0.6,6.5-1.7c1.9-0.8,3.8-2,5.7-3.5c1.8-1.5,3.5-3.3,4.8-5.4c1.4-2.1,2.3-4.4,2.9-6.9    c0.6-2.4,0.9-6,1.1-10.7l1.1-31.5l5.3-2.3C526.2,250.1,526.4,249.8,526.4,249.5z"
   style="fill:#F85818;" />
		<path
   id="path27"
   d="M528.3,288.9c-1.1,0.5-2,1.4-2.8,2.8c-0.7,1.4-1.2,2.8-1.2,4.2c-0.1,1.6,0.3,2.8,1.1,3.6    c0.5,0.6,1.2,0.9,1.9,0.9c0.4,0,0.8-0.1,1.2-0.3c1.1-0.5,2.1-1.4,2.9-2.9c0.8-1.4,1.2-2.8,1.2-4.3c0.1-1.6-0.3-2.8-1.1-3.6    C530.9,288.8,529.8,288.2,528.3,288.9z"
   style="fill:#F85818;" />
		<path
   id="path29"
   d="M567.1,231.2c-2.8-0.4-6.2,0.2-10.1,1.9l-17.2,7.4c-0.3,0.1-0.4,0.4-0.5,0.7l-0.1,2    c0,0.3,0.1,0.5,0.3,0.6c0.2,0.1,0.5,0.2,0.7,0.1l4.6-2l-1.6,47.2l-5.2,2.3c-0.3,0.1-0.4,0.4-0.5,0.7l-0.1,2c0,0.3,0.1,0.5,0.3,0.6    c0.1,0.1,0.3,0.1,0.4,0.1c0.1,0,0.2,0,0.3-0.1l17.1-7.4c3.8-1.6,7.1-3.9,9.8-6.6c2.7-2.7,5.2-6.9,7.3-12.2    c2.2-5.4,3.4-11,3.6-16.7c0.2-5.4-0.6-10.1-2.3-14C572.4,233.9,570,231.7,567.1,231.2z M568,252.4c-0.2,5.4-0.5,9.9-1,13.4    c-0.5,3.5-1.2,6.5-2.3,9.1c-1,2.5-2.3,4.4-3.8,5.7c-1.5,1.3-3.5,2.5-5.9,3.5l-3.6,1.6l1.6-47.2l4.4-1.9c2.6-1.1,4.6-1.6,6.2-1.6    c1.3,0,2.4,1.3,3.3,3.7C567.8,241.4,568.2,246,568,252.4z"
   style="fill:#F85818;" />
		<path
   id="path31"
   d="M621.7,255.7c-0.2-0.1-0.5-0.2-0.7-0.1l-3,1.3L602,234.6l12.3-22.5l5.3-2.3    c0.3-0.1,0.4-0.4,0.5-0.7l0.1-2c0-0.3-0.1-0.5-0.3-0.6c-0.2-0.1-0.5-0.2-0.7-0.1l-13.7,5.9c-0.3,0.1-0.4,0.4-0.5,0.7l-0.1,2    c0,0.3,0.1,0.5,0.3,0.6c0.2,0.1,0.5,0.2,0.7,0.1l4.2-1.8l-14,25.8l0.7-20l5.3-2.3c0.3-0.1,0.4-0.4,0.5-0.7l0.1-2    c0-0.3-0.1-0.5-0.3-0.6c-0.2-0.1-0.5-0.2-0.7-0.1l-17.9,7.7c-0.3,0.1-0.4,0.4-0.5,0.7l-0.1,2c0,0.3,0.1,0.5,0.3,0.6    c0.2,0.1,0.5,0.2,0.7,0.1l4.6-2l-1.6,47.2l-5.3,2.3c-0.3,0.1-0.4,0.4-0.5,0.7l-0.1,2c0,0.3,0.1,0.5,0.3,0.6    c0.1,0.1,0.3,0.1,0.4,0.1c0.1,0,0.2,0,0.3-0.1l17.9-7.7c0.3-0.1,0.4-0.4,0.5-0.7l0.1-2c0-0.3-0.1-0.5-0.3-0.6    c-0.2-0.1-0.5-0.2-0.7-0.1l-4.6,2L596,243l12.5,18l-5.4,2.3c-0.3,0.1-0.4,0.4-0.5,0.7l-0.1,2c0,0.3,0.1,0.5,0.3,0.6    c0.2,0.1,0.5,0.2,0.7,0.1l17.9-7.7c0.3-0.1,0.4-0.4,0.5-0.7l0.1-2C622,256.1,621.9,255.9,621.7,255.7z"
   style="fill:#F85818;" />
	</g>
</g></g>
</svg>